<svg xmlns="http://www.w3.org/2000/svg" xmlns:xlink="http://www.w3.org/1999/xlink" xml:space="preserve" version="1.1" style="shape-rendering:geometricPrecision;text-rendering:geometricPrecision;image-rendering:optimizeQuality;" viewBox="0 0 1.627 1.9137499999999998" x="0px" y="0px" fill-rule="evenodd" clip-rule="evenodd"><defs><style type="text/css">
   
    .fil0 {fill:none}
    .fil1 {fill:black;fill-rule:nonzero}
   
  </style></defs><g><g><rect class="fil0" width="1.627" height="1.531"/><path class="fil1" d="M0.745 0.004c0.119,0 0.227,0.048 0.305,0.126 0.078,0.078 0.126,0.185 0.126,0.304 0,0.023 -0.002,0.045 -0.005,0.066 0.039,-0.019 0.059,-0.077 0.08,-0.138 0.042,-0.124 0.087,-0.255 0.277,-0.202 0.018,0.005 0.033,0.013 0.047,0.023 0.047,0.036 0.06,0.097 0.048,0.172 -0.011,0.067 -0.041,0.146 -0.083,0.227 -0.079,0.153 -0.199,0.314 -0.299,0.41 -0.05,0.048 -0.083,0.124 -0.104,0.204 -0.027,0.107 -0.031,0.219 -0.019,0.279 0.003,0.017 -0.008,0.034 -0.025,0.038 -0.017,0.003 -0.034,-0.008 -0.037,-0.025 -0.014,-0.067 -0.01,-0.191 0.02,-0.308 0.023,-0.09 0.062,-0.177 0.121,-0.233 0.095,-0.092 0.21,-0.247 0.286,-0.395 0.039,-0.075 0.067,-0.148 0.077,-0.207 0.008,-0.052 0.003,-0.092 -0.024,-0.112 -0.006,-0.005 -0.015,-0.009 -0.025,-0.012 -0.132,-0.037 -0.167,0.065 -0.2,0.161 -0.031,0.092 -0.061,0.181 -0.157,0.187 -0.021,0.065 -0.057,0.123 -0.104,0.17 -0.078,0.078 -0.186,0.126 -0.305,0.126 -0.119,0 -0.226,-0.048 -0.304,-0.126 -0.003,-0.003 -0.005,-0.005 -0.008,-0.008 -0.116,0.041 -0.217,0.158 -0.284,0.287 -0.041,0.078 -0.068,0.16 -0.08,0.233 -0.011,0.069 -0.007,0.129 0.016,0.167 0.01,0.018 0.026,0.031 0.046,0.037 0.099,0.027 0.132,-0.024 0.151,-0.091 0.007,-0.024 0.012,-0.048 0.017,-0.072 0.02,-0.101 0.04,-0.199 0.147,-0.2 0.018,0 0.032,0.014 0.032,0.032 0.001,0.017 -0.014,0.032 -0.031,0.032 -0.056,0 -0.071,0.073 -0.086,0.149 -0.005,0.026 -0.011,0.052 -0.017,0.076 -0.029,0.1 -0.079,0.177 -0.23,0.135 -0.037,-0.011 -0.065,-0.033 -0.084,-0.065 -0.03,-0.051 -0.037,-0.126 -0.024,-0.21 0.013,-0.079 0.043,-0.168 0.086,-0.252 0.07,-0.135 0.176,-0.257 0.299,-0.31 -0.048,-0.069 -0.076,-0.154 -0.076,-0.245 0,-0.119 0.048,-0.226 0.126,-0.304 0.078,-0.078 0.185,-0.126 0.304,-0.126zm0.225 0.31c0.012,0.012 0.012,0.033 0,0.045 -0.013,0.012 -0.033,0.012 -0.045,-0.001 -0.011,-0.01 -0.021,-0.016 -0.032,-0.019 -0.013,-0.003 -0.029,-0.003 -0.05,-0.002 -0.017,0.001 -0.032,-0.012 -0.033,-0.03 -0.001,-0.017 0.012,-0.032 0.03,-0.033 0.026,-0.002 0.048,-0.001 0.068,0.004 0.023,0.005 0.043,0.016 0.062,0.036zm-0.404 0.044c-0.012,0.013 -0.032,0.013 -0.045,0.001 -0.012,-0.012 -0.013,-0.033 0,-0.045 0.019,-0.02 0.039,-0.031 0.061,-0.036 0.021,-0.005 0.042,-0.006 0.069,-0.004 0.017,0.001 0.031,0.016 0.03,0.033 -0.001,0.018 -0.016,0.031 -0.034,0.03 -0.02,-0.001 -0.037,-0.001 -0.05,0.002 -0.011,0.003 -0.02,0.009 -0.031,0.019zm0.002 0.274c-0.011,-0.014 -0.008,-0.034 0.006,-0.044 0.014,-0.011 0.034,-0.008 0.045,0.006l0.002 0.002c0.019,0.017 0.068,0.026 0.119,0.026 0.053,0.001 0.105,-0.007 0.129,-0.025 0.002,-0.002 0.003,-0.003 0.004,-0.005 0.012,-0.013 0.032,-0.014 0.045,-0.003 0.013,0.012 0.015,0.032 0.003,0.045 -0.004,0.005 -0.009,0.009 -0.014,0.013 -0.036,0.027 -0.103,0.04 -0.167,0.039 -0.065,-0.001 -0.13,-0.015 -0.161,-0.042 -0.004,-0.004 -0.008,-0.008 -0.011,-0.012zm0.437 -0.457c-0.067,-0.067 -0.158,-0.108 -0.26,-0.108 -0.101,0 -0.193,0.041 -0.259,0.108 -0.066,0.066 -0.108,0.158 -0.108,0.259 0,0.102 0.042,0.193 0.108,0.26 0.066,0.066 0.158,0.107 0.259,0.107 0.102,0 0.193,-0.041 0.26,-0.107 0.066,-0.067 0.107,-0.158 0.107,-0.26 0,-0.101 -0.041,-0.193 -0.107,-0.259z"/></g></g></svg>